<?xml version="1.0" encoding="utf-8"?>
<!-- Generator: Adobe Illustrator 16.0.0, SVG Export Plug-In . SVG Version: 6.00 Build 0)  -->
<!DOCTYPE svg PUBLIC "-//W3C//DTD SVG 1.1//EN" "http://www.w3.org/Graphics/SVG/1.1/DTD/svg11.dtd">
<svg version="1.1" xmlns="http://www.w3.org/2000/svg" xmlns:xlink="http://www.w3.org/1999/xlink" x="0px" y="0px" width="46px"
	 height="46px" viewBox="0 0 46 46" enable-background="new 0 0 46 46" xml:space="preserve">
<g id="Layer_10">
	<g>
		<circle fill="#C13584" cx="23" cy="23" r="23"/>
	</g>
</g>
<g id="Layer_11">
	<path fill="#FFFFFF" d="M16.351,29.65c-1.516-1.518-1.343-3.543-1.343-6.655c0-3.04-0.2-5.114,1.343-6.652
		c0.908-0.852,2.111-1.316,3.355-1.293c1.474-0.066,5.122-0.069,6.592,0c3.012,0.139,4.52,1.841,4.651,4.651
		c0.065,1.472,0.069,5.119,0,6.591c-0.108,2.379-1.228,3.699-2.711,4.279c-1.089,0.422-2.153,0.42-5.236,0.42
		c-0.625,0-1.211,0.008-1.762,0.008C19.148,30.998,17.574,30.873,16.351,29.65z M28.629,28.631c0.992-1,0.93-2.34,0.93-5.635
		c0-2.135-0.008-2.389-0.047-3.231c-0.167-3.7-2.955-3.325-6.508-3.325l-0.03-0.02c-2.138,0-2.388,0.011-3.237,0.04
		c-3.7,0.19-3.317,2.843-3.317,6.524c0,2.723-0.2,4.518,0.92,5.637c0.975,0.977,2.311,0.928,5.644,0.928
		C26.222,29.549,27.621,29.639,28.629,28.631z M18.901,22.999c0-0.54,0.105-1.073,0.312-1.571c0.206-0.499,0.508-0.952,0.89-1.333
		s0.835-0.684,1.333-0.89s1.033-0.312,1.572-0.311c1.088,0,2.133,0.432,2.903,1.202c0.77,0.769,1.202,1.814,1.202,2.903
		c-0.001,1.089-0.436,2.132-1.206,2.902c-0.771,0.768-1.816,1.199-2.905,1.199c-1.088,0-2.131-0.434-2.899-1.201
		C19.333,25.129,18.901,24.086,18.901,22.999z M20.341,22.999c0,0.351,0.068,0.697,0.202,1.021c0.134,0.322,0.33,0.617,0.577,0.865
		c0.248,0.246,0.542,0.443,0.865,0.576c0.323,0.135,0.67,0.203,1.02,0.203c0.351,0,0.698-0.068,1.021-0.201
		c0.323-0.135,0.617-0.332,0.864-0.578c0.248-0.248,0.444-0.543,0.578-0.865c0.133-0.324,0.202-0.67,0.201-1.021
		c0-0.351-0.068-0.696-0.202-1.02s-0.33-0.617-0.577-0.864c-0.248-0.248-0.541-0.443-0.865-0.578
		c-0.322-0.133-0.669-0.203-1.02-0.202c-0.35,0-0.696,0.068-1.02,0.202c-0.324,0.133-0.619,0.329-0.866,0.576
		c-0.248,0.248-0.444,0.541-0.579,0.865c-0.133,0.323-0.203,0.67-0.203,1.021H20.341z M26.315,18.731
		c0-0.126,0.024-0.25,0.073-0.367s0.119-0.222,0.209-0.311c0.088-0.089,0.194-0.16,0.311-0.208c0.117-0.048,0.241-0.073,0.367-0.073
		c0.254,0,0.498,0.101,0.678,0.281s0.281,0.423,0.281,0.677c0,0.126-0.024,0.25-0.072,0.367c-0.049,0.116-0.119,0.222-0.208,0.312
		c-0.089,0.089-0.195,0.159-0.312,0.208c-0.116,0.048-0.241,0.073-0.367,0.073c-0.127,0-0.252-0.024-0.369-0.072
		c-0.117-0.048-0.223-0.119-0.312-0.208s-0.16-0.196-0.209-0.313c-0.048-0.117-0.072-0.242-0.072-0.369L26.315,18.731z"/>
</g>
</svg>
