<?xml version="1.0" encoding="utf-8"?>
<!-- Generator: Adobe Illustrator 16.0.0, SVG Export Plug-In . SVG Version: 6.00 Build 0)  -->
<!DOCTYPE svg PUBLIC "-//W3C//DTD SVG 1.1//EN" "http://www.w3.org/Graphics/SVG/1.1/DTD/svg11.dtd">
<svg version="1.1" xmlns="http://www.w3.org/2000/svg" xmlns:xlink="http://www.w3.org/1999/xlink" x="0px" y="0px" width="46px"
	 height="46px" viewBox="0 0 46 46" enable-background="new 0 0 46 46" xml:space="preserve">
<g id="Layer_16">
	<g>
		<circle fill="#177FBF" cx="23" cy="23" r="23"/>
	</g>
</g>
<g id="Layer_15">
	<path fill="#FFFFFF" d="M31,18.038c-0.602,0.263-1.238,0.437-1.891,0.518c0.688-0.407,1.201-1.052,1.443-1.813
		c-0.643,0.381-1.346,0.65-2.08,0.794c-0.449-0.479-1.033-0.813-1.675-0.957s-1.312-0.092-1.924,0.15
		c-0.612,0.242-1.137,0.662-1.506,1.206S22.8,19.123,22.8,19.78c-0.002,0.251,0.023,0.502,0.076,0.748
		c-1.305-0.062-2.582-0.401-3.747-0.992c-1.165-0.591-2.192-1.421-3.015-2.437c-0.422,0.722-0.553,1.577-0.365,2.392
		c0.187,0.815,0.679,1.527,1.374,1.992c-0.519-0.012-1.027-0.149-1.482-0.399v0.036c0.001,0.757,0.264,1.49,0.742,2.077
		c0.479,0.586,1.145,0.991,1.886,1.145c-0.281,0.074-0.57,0.11-0.86,0.107c-0.208,0.004-0.417-0.015-0.621-0.056
		c0.212,0.651,0.621,1.221,1.169,1.63s1.211,0.639,1.896,0.655c-1.161,0.908-2.593,1.401-4.067,1.399
		c-0.263,0-0.525-0.018-0.785-0.051c1.5,0.966,3.248,1.477,5.032,1.472c1.228,0.009,2.446-0.228,3.582-0.693
		c1.136-0.466,2.169-1.153,3.038-2.021c0.868-0.868,1.556-1.901,2.021-3.037c0.467-1.135,0.702-2.354,0.694-3.582
		c0-0.146-0.005-0.285-0.013-0.424C30.003,19.278,30.561,18.701,31,18.038z"/>
</g>
</svg>
