<?xml version="1.0" encoding="utf-8"?>
<!-- Generator: Adobe Illustrator 16.0.0, SVG Export Plug-In . SVG Version: 6.00 Build 0)  -->
<!DOCTYPE svg PUBLIC "-//W3C//DTD SVG 1.1//EN" "http://www.w3.org/Graphics/SVG/1.1/DTD/svg11.dtd">
<svg version="1.1" xmlns="http://www.w3.org/2000/svg" xmlns:xlink="http://www.w3.org/1999/xlink" x="0px" y="0px" width="46px"
	 height="46px" viewBox="0 0 46 46" enable-background="new 0 0 46 46" xml:space="preserve">
<g id="Layer_1">
	<circle fill="none" stroke="#E2E3E4" stroke-width="2" cx="23" cy="23" r="22"/>
</g>
<g id="Layer_4">
	<path opacity="0.3" fill="#131821" enable-background="new    " d="M31,18.038c-0.602,0.263-1.238,0.437-1.891,0.518
		c0.688-0.407,1.201-1.052,1.443-1.813c-0.643,0.381-1.346,0.65-2.08,0.794c-0.449-0.479-1.033-0.813-1.675-0.957
		s-1.312-0.092-1.924,0.15c-0.612,0.242-1.137,0.662-1.507,1.206C22.998,18.48,22.8,19.123,22.8,19.78
		c-0.003,0.252,0.022,0.503,0.076,0.748c-1.305-0.062-2.581-0.401-3.747-0.992c-1.165-0.591-2.192-1.421-3.015-2.437
		c-0.422,0.722-0.553,1.577-0.365,2.392c0.187,0.815,0.679,1.527,1.374,1.992c-0.519-0.012-1.027-0.149-1.482-0.399v0.036
		c0.001,0.757,0.264,1.49,0.742,2.077c0.479,0.586,1.145,0.991,1.886,1.145c-0.281,0.074-0.57,0.11-0.86,0.107
		c-0.208,0.004-0.417-0.015-0.621-0.056c0.212,0.651,0.621,1.221,1.169,1.63s1.211,0.639,1.895,0.655
		c-1.161,0.908-2.592,1.401-4.066,1.399c-0.263,0-0.525-0.018-0.785-0.051c1.5,0.966,3.248,1.477,5.032,1.472
		c1.228,0.009,2.446-0.228,3.582-0.693s2.169-1.153,3.038-2.021c0.868-0.868,1.556-1.901,2.021-3.037
		c0.467-1.135,0.702-2.354,0.694-3.582c0-0.146-0.005-0.285-0.013-0.425C30.003,19.278,30.561,18.701,31,18.038z"/>
</g>
</svg>
