<?xml version="1.0" encoding="utf-8"?>
<!-- Generator: Adobe Illustrator 16.0.0, SVG Export Plug-In . SVG Version: 6.00 Build 0)  -->
<!DOCTYPE svg PUBLIC "-//W3C//DTD SVG 1.1//EN" "http://www.w3.org/Graphics/SVG/1.1/DTD/svg11.dtd">
<svg version="1.1" xmlns="http://www.w3.org/2000/svg" xmlns:xlink="http://www.w3.org/1999/xlink" x="0px" y="0px" width="46px"
	 height="46px" viewBox="0 0 46 46" enable-background="new 0 0 46 46" xml:space="preserve">
<g id="Layer_1">
	<circle fill="none" stroke="#E2E3E4" stroke-width="2" cx="23" cy="23" r="22"/>
</g>
<g id="Layer_5">
	<path opacity="0.3" fill="#131821" enable-background="new    " d="M23.004,28.5c-1.947,0-4.448-0.03-5.461-0.087
		c-0.929-0.063-1.414-0.181-1.864-0.978S15,25.234,15,23.007v-0.01c0-2.261,0.208-3.628,0.679-4.436
		c0.434-0.767,0.905-0.914,1.866-0.969c1.021-0.068,3.579-0.092,5.459-0.092c1.879,0,4.432,0.024,5.453,0.092
		c0.961,0.055,1.434,0.2,1.863,0.969c0.471,0.8,0.68,2.167,0.68,4.438v0.007c0,2.271-0.207,3.639-0.678,4.432
		c-0.43,0.762-0.9,0.912-1.865,0.976C27.447,28.469,24.949,28.5,23.004,28.5z M21.004,20v6l5-3L21.004,20z"/>
</g>
</svg>
