<?xml version="1.0" encoding="utf-8"?>
<!-- Generator: Adobe Illustrator 16.0.0, SVG Export Plug-In . SVG Version: 6.00 Build 0)  -->
<!DOCTYPE svg PUBLIC "-//W3C//DTD SVG 1.1//EN" "http://www.w3.org/Graphics/SVG/1.1/DTD/svg11.dtd">
<svg version="1.1" xmlns="http://www.w3.org/2000/svg" xmlns:xlink="http://www.w3.org/1999/xlink" x="0px" y="0px" width="46px"
	 height="46px" viewBox="0 0 46 46" enable-background="new 0 0 46 46" xml:space="preserve">
<g id="Layer_1" display="none">
	<circle display="inline" fill="none" stroke="#E2E3E4" stroke-width="2" cx="23" cy="23" r="22"/>
</g>
<g id="Layer_6" display="none">
	<g display="inline">
		<circle fill="#2F4A80" cx="23" cy="23" r="23"/>
	</g>
</g>
<g id="Layer_7" display="none">
	<g display="inline">
		<circle fill="#4267B2" cx="23" cy="23" r="23"/>
	</g>
</g>
<g id="Layer_2" display="none">
	<path display="inline" opacity="0.3" fill="#131821" enable-background="new    " d="M24,20v-1.5c0-0.265,0.105-0.52,0.293-0.707
		S24.734,17.5,25,17.5h1V15h-2c-0.796,0-1.559,0.316-2.121,0.879C21.316,16.441,21,17.204,21,18v2h-2v3h2v8h3v-8h2l1-3H24z"/>
</g>
<g id="Layer_8" display="none">
	<path display="inline" fill="#FFFFFF" d="M24,20v-1.5c0-0.265,0.105-0.52,0.293-0.707S24.734,17.5,25,17.5h1V15h-2
		c-0.796,0-1.559,0.316-2.121,0.879C21.316,16.441,21,17.204,21,18v2h-2v3h2v8h3v-8h2l1-3H24z"/>
</g>
<g id="Layer_9" display="none">
	<g display="inline">
		<circle fill="#8F2762" cx="23" cy="23" r="23"/>
	</g>
</g>
<g id="Layer_10" display="none">
	<g display="inline">
		<circle fill="#C13584" cx="23" cy="23" r="23"/>
	</g>
</g>
<g id="Layer_11" display="none">
	<path display="inline" fill="#FFFFFF" d="M16.351,29.65c-1.516-1.518-1.343-3.543-1.343-6.655c0-3.04-0.2-5.114,1.343-6.652
		c0.908-0.852,2.111-1.316,3.355-1.293c1.474-0.066,5.122-0.069,6.592,0c3.012,0.139,4.52,1.841,4.651,4.651
		c0.065,1.472,0.069,5.119,0,6.591c-0.108,2.379-1.228,3.699-2.711,4.279c-1.089,0.422-2.153,0.42-5.236,0.42
		c-0.625,0-1.211,0.008-1.762,0.008C19.148,30.998,17.574,30.873,16.351,29.65z M28.629,28.631c0.992-1,0.93-2.34,0.93-5.635
		c0-2.135-0.008-2.389-0.047-3.231c-0.167-3.7-2.955-3.325-6.508-3.325l-0.03-0.02c-2.138,0-2.388,0.011-3.237,0.04
		c-3.7,0.19-3.317,2.843-3.317,6.524c0,2.723-0.2,4.518,0.92,5.637c0.975,0.977,2.311,0.928,5.644,0.928
		C26.222,29.549,27.621,29.639,28.629,28.631z M18.901,22.999c0-0.54,0.105-1.073,0.312-1.571c0.206-0.499,0.508-0.952,0.89-1.333
		s0.835-0.684,1.333-0.89s1.033-0.312,1.572-0.311c1.088,0,2.133,0.432,2.903,1.202c0.77,0.769,1.202,1.814,1.202,2.903
		c-0.001,1.089-0.436,2.132-1.206,2.902c-0.771,0.768-1.816,1.199-2.905,1.199c-1.088,0-2.131-0.434-2.899-1.201
		C19.333,25.129,18.901,24.086,18.901,22.999z M20.341,22.999c0,0.351,0.068,0.697,0.202,1.021c0.134,0.322,0.33,0.617,0.577,0.865
		c0.248,0.246,0.542,0.443,0.865,0.576c0.323,0.135,0.67,0.203,1.02,0.203c0.351,0,0.698-0.068,1.021-0.201
		c0.323-0.135,0.617-0.332,0.864-0.578c0.248-0.248,0.444-0.543,0.578-0.865c0.133-0.324,0.202-0.67,0.201-1.021
		c0-0.351-0.068-0.696-0.202-1.02s-0.33-0.617-0.577-0.864c-0.248-0.248-0.541-0.443-0.865-0.578
		c-0.322-0.133-0.669-0.203-1.02-0.202c-0.35,0-0.696,0.068-1.02,0.202c-0.324,0.133-0.619,0.329-0.866,0.576
		c-0.248,0.248-0.444,0.541-0.579,0.865c-0.133,0.323-0.203,0.67-0.203,1.021H20.341z M26.315,18.731
		c0-0.126,0.024-0.25,0.073-0.367s0.119-0.222,0.209-0.311c0.088-0.089,0.194-0.16,0.311-0.208c0.117-0.048,0.241-0.073,0.367-0.073
		c0.254,0,0.498,0.101,0.678,0.281s0.281,0.423,0.281,0.677c0,0.126-0.024,0.25-0.072,0.367c-0.049,0.116-0.119,0.222-0.208,0.312
		c-0.089,0.089-0.195,0.159-0.312,0.208c-0.116,0.048-0.241,0.073-0.367,0.073c-0.127,0-0.252-0.024-0.369-0.072
		c-0.117-0.048-0.223-0.119-0.312-0.208s-0.16-0.196-0.209-0.313c-0.048-0.117-0.072-0.242-0.072-0.369L26.315,18.731z"/>
</g>
<g id="Layer_3" display="none">
	<path display="inline" opacity="0.3" fill="#131821" enable-background="new    " d="M16.351,29.65
		c-1.516-1.518-1.343-3.543-1.343-6.654c0-3.04-0.2-5.114,1.343-6.652c0.908-0.852,2.111-1.316,3.355-1.293
		c1.474-0.066,5.122-0.069,6.592,0c3.012,0.139,4.52,1.841,4.651,4.651c0.065,1.472,0.069,5.118,0,6.591
		c-0.108,2.379-1.228,3.699-2.711,4.279c-1.089,0.422-2.153,0.42-5.236,0.42c-0.625,0-1.211,0.008-1.762,0.008
		C19.148,30.998,17.574,30.873,16.351,29.65z M28.629,28.631c0.992-1,0.93-2.34,0.93-5.635c0-2.135-0.008-2.389-0.047-3.23
		c-0.167-3.701-2.955-3.326-6.508-3.326l-0.03-0.02c-2.138,0-2.388,0.011-3.237,0.04c-3.7,0.19-3.317,2.843-3.317,6.524
		c0,2.723-0.2,4.518,0.92,5.637c0.975,0.977,2.311,0.928,5.644,0.928C26.222,29.549,27.621,29.639,28.629,28.631z M18.901,22.999
		c0-0.54,0.105-1.073,0.312-1.571c0.206-0.499,0.508-0.951,0.89-1.333s0.835-0.684,1.333-0.89s1.033-0.312,1.572-0.311
		c1.088,0,2.133,0.432,2.903,1.202s1.202,1.814,1.202,2.903c-0.001,1.089-0.436,2.132-1.206,2.901
		c-0.771,0.768-1.816,1.199-2.905,1.199c-1.088,0-2.131-0.434-2.899-1.201C19.333,25.129,18.901,24.086,18.901,22.999z
		 M20.341,22.999c0,0.351,0.068,0.696,0.202,1.021c0.134,0.322,0.33,0.617,0.577,0.865c0.248,0.246,0.542,0.443,0.865,0.576
		c0.323,0.135,0.67,0.203,1.02,0.203c0.351,0,0.698-0.068,1.021-0.201c0.323-0.135,0.617-0.332,0.864-0.578
		c0.248-0.248,0.444-0.543,0.578-0.865c0.133-0.324,0.202-0.67,0.201-1.021c0-0.351-0.068-0.696-0.202-1.02s-0.33-0.617-0.577-0.864
		c-0.248-0.248-0.541-0.443-0.865-0.578c-0.322-0.133-0.669-0.203-1.02-0.202c-0.35-0.001-0.696,0.067-1.02,0.202
		c-0.324,0.133-0.619,0.329-0.866,0.576c-0.248,0.248-0.444,0.541-0.579,0.865c-0.133,0.323-0.203,0.67-0.203,1.021H20.341z
		 M26.315,18.732c0-0.126,0.024-0.25,0.073-0.367s0.119-0.222,0.209-0.311c0.088-0.089,0.194-0.16,0.311-0.208
		c0.117-0.048,0.241-0.073,0.367-0.073c0.254,0,0.498,0.101,0.678,0.281s0.281,0.423,0.281,0.677c0,0.126-0.024,0.25-0.072,0.367
		c-0.049,0.116-0.119,0.222-0.208,0.312c-0.089,0.089-0.195,0.16-0.312,0.208s-0.241,0.073-0.367,0.073
		c-0.127,0-0.252-0.025-0.369-0.072c-0.117-0.049-0.223-0.119-0.312-0.208s-0.16-0.196-0.209-0.313
		c-0.048-0.117-0.072-0.242-0.072-0.369L26.315,18.732z"/>
</g>
<g id="Layer_5" display="none">
	<path display="inline" opacity="0.3" fill="#131821" enable-background="new    " d="M23.004,28.5c-1.947,0-4.448-0.03-5.461-0.087
		c-0.929-0.063-1.414-0.181-1.864-0.978S15,25.234,15,23.007v-0.01c0-2.261,0.208-3.628,0.679-4.436
		c0.434-0.767,0.905-0.914,1.866-0.969c1.021-0.068,3.579-0.092,5.459-0.092c1.879,0,4.432,0.024,5.453,0.092
		c0.961,0.055,1.434,0.2,1.863,0.969c0.471,0.8,0.68,2.167,0.68,4.438v0.007c0,2.271-0.207,3.639-0.678,4.432
		c-0.43,0.762-0.9,0.912-1.865,0.976C27.447,28.469,24.949,28.5,23.004,28.5z M21.004,20v6l5-3L21.004,20z"/>
</g>
<g id="Layer_13">
	<g>
		<circle fill="#CC0000" cx="23" cy="23" r="23"/>
	</g>
</g>
<g id="Layer_14">
	<g>
		<circle fill="#FF0000" cx="23" cy="23" r="23"/>
	</g>
</g>
<g id="Layer_12">
	<path fill="#FFFFFF" d="M23.003,28.5c-1.947,0-4.448-0.03-5.461-0.087c-0.928-0.063-1.414-0.181-1.864-0.978S15,25.234,15,23.007
		v-0.01c0-2.261,0.208-3.628,0.679-4.436c0.434-0.767,0.905-0.914,1.866-0.969c1.021-0.068,3.579-0.092,5.459-0.092
		c1.879,0,4.432,0.024,5.454,0.092c0.961,0.055,1.434,0.2,1.863,0.969c0.471,0.8,0.68,2.167,0.68,4.438v0.007
		c0,2.271-0.207,3.639-0.678,4.432c-0.43,0.762-0.9,0.912-1.865,0.976C27.447,28.469,24.949,28.5,23.003,28.5z M21.003,20v6l5-3
		L21.003,20z"/>
</g>
<g id="Layer_4" display="none">
	<path display="inline" opacity="0.3" fill="#131821" enable-background="new    " d="M31,18.038
		c-0.602,0.263-1.238,0.437-1.891,0.518c0.688-0.407,1.201-1.052,1.443-1.813c-0.643,0.381-1.346,0.65-2.08,0.794
		c-0.449-0.479-1.033-0.813-1.675-0.957s-1.312-0.092-1.924,0.15c-0.612,0.242-1.137,0.662-1.507,1.206
		C22.998,18.48,22.8,19.123,22.8,19.78c-0.003,0.252,0.022,0.503,0.076,0.748c-1.305-0.062-2.581-0.401-3.747-0.992
		c-1.165-0.591-2.192-1.421-3.015-2.437c-0.422,0.722-0.553,1.577-0.365,2.392c0.187,0.815,0.679,1.527,1.374,1.992
		c-0.519-0.012-1.027-0.149-1.482-0.399v0.036c0.001,0.757,0.264,1.49,0.742,2.077c0.479,0.586,1.145,0.991,1.886,1.145
		c-0.281,0.074-0.57,0.11-0.86,0.107c-0.208,0.004-0.417-0.015-0.621-0.056c0.212,0.651,0.621,1.221,1.169,1.63
		s1.211,0.639,1.895,0.655c-1.161,0.908-2.592,1.401-4.066,1.399c-0.263,0-0.525-0.018-0.785-0.051
		c1.5,0.966,3.248,1.477,5.032,1.472c1.228,0.009,2.446-0.228,3.582-0.693s2.169-1.153,3.038-2.021
		c0.868-0.868,1.556-1.901,2.021-3.037c0.467-1.135,0.702-2.354,0.694-3.582c0-0.146-0.005-0.285-0.013-0.425
		C30.003,19.278,30.561,18.701,31,18.038z"/>
</g>
</svg>
